<svg width="26" height="22" viewBox="0 0 26 22" fill="none" xmlns="http://www.w3.org/2000/svg">
<path d="M10.1355 20.2016C10.6878 20.2016 11.1355 19.8178 11.1355 19.3444C11.1355 18.8711 10.6878 18.4873 10.1355 18.4873C9.58321 18.4873 9.1355 18.8711 9.1355 19.3444C9.1355 19.8178 9.58321 20.2016 10.1355 20.2016Z" stroke="#F8964C" stroke-width="3" stroke-linecap="round" stroke-linejoin="round"/>
<path d="M21.1338 20.2016C21.6861 20.2016 22.1338 19.8178 22.1338 19.3444C22.1338 18.8711 21.6861 18.4873 21.1338 18.4873C20.5815 18.4873 20.1338 18.8711 20.1338 19.3444C20.1338 19.8178 20.5815 20.2016 21.1338 20.2016Z" stroke="#F8964C" stroke-width="3" stroke-linecap="round" stroke-linejoin="round"/>
<path d="M2.13306 2.20154H6.13306L8.81306 13.6785C8.9045 14.0732 9.15496 14.4276 9.5206 14.6799C9.88624 14.9322 10.3438 15.0662 10.8131 15.0585H20.5331C21.0024 15.0662 21.4599 14.9322 21.8255 14.6799C22.1911 14.4276 22.4416 14.0732 22.5331 13.6785L24.1331 6.4872H7.13306" stroke="#F8964C" stroke-width="3" stroke-linecap="round" stroke-linejoin="round"/>
</svg>
