<svg width="15" height="17" viewBox="0 0 15 17" fill="none" xmlns="http://www.w3.org/2000/svg">
<path d="M14.1299 4.37995L5.03791 6.99995H14.4979C14.6305 6.99995 14.7577 7.05263 14.8515 7.1464C14.9452 7.24017 14.9979 7.36734 14.9979 7.49995V14.5C14.9979 15.163 14.7345 15.7989 14.2657 16.2677C13.7968 16.7366 13.1609 17 12.4979 17H3.49791C2.83521 16.9994 2.19984 16.7358 1.73143 16.267C1.26302 15.7982 0.999906 15.1626 0.999907 14.5V7.57095L0.742907 6.67795C0.651924 6.36245 0.623984 6.03212 0.660684 5.70582C0.697384 5.37952 0.798004 5.06364 0.956798 4.77624C1.11559 4.48883 1.32945 4.23552 1.58615 4.03077C1.84286 3.82603 2.13738 3.67386 2.45291 3.58295L11.0999 1.08995C11.4154 0.998969 11.7457 0.97103 12.072 1.00773C12.3983 1.04443 12.7142 1.14505 13.0016 1.30384C13.289 1.46264 13.5423 1.67649 13.7471 1.9332C13.9518 2.1899 14.104 2.48443 14.1949 2.79995L14.4719 3.75995C14.4903 3.82312 14.496 3.88928 14.4887 3.95466C14.4814 4.02003 14.4613 4.08333 14.4296 4.14092C14.3978 4.19851 14.355 4.24927 14.3035 4.29029C14.2521 4.33131 14.1931 4.36178 14.1299 4.37995ZM1.83991 6.87995L2.44691 6.70495L3.88891 4.20995L2.72891 4.54495C2.34702 4.65513 2.02447 4.91237 1.8321 5.26017C1.63973 5.60798 1.59327 6.01791 1.70291 6.39995L1.84091 6.87995H1.83991ZM3.83191 6.30595L5.95191 5.69395L7.39491 3.19695L5.26991 3.80995C5.26356 3.82427 5.25655 3.83828 5.24891 3.85195L3.83291 6.30695L3.83191 6.30595ZM9.45891 4.68395L10.9009 2.18595L8.77491 2.79895C8.76726 2.8171 8.75858 2.8348 8.74891 2.85195L7.33991 5.29595L9.45991 4.68495L9.45891 4.68395ZM12.1429 2.03195C12.1367 2.0442 12.13 2.05621 12.1229 2.06795L10.8439 4.28395L13.3709 3.55595L13.2319 3.07595C13.1587 2.82113 13.0193 2.59026 12.8278 2.40687C12.6363 2.22348 12.3996 2.09411 12.1419 2.03195H12.1429ZM1.99991 7.99995V14.5C1.99991 14.8978 2.15794 15.2793 2.43925 15.5606C2.72055 15.8419 3.10208 16 3.49991 16H12.4999C12.8977 16 13.2793 15.8419 13.5606 15.5606C13.8419 15.2793 13.9999 14.8978 13.9999 14.5V7.99995H1.99991Z" fill="#0330A6"/>
</svg>
