<svg width="530" height="551" viewBox="0 0 530 551" fill="none" xmlns="http://www.w3.org/2000/svg">
<ellipse cx="240.375" cy="241.537" rx="240.143" ry="240.619" fill="#7B83EB"/>
<rect x="158.226" y="430.611" width="1.57074" height="120.389" fill="white"/>
<rect x="277.859" y="447.023" width="1.33264" height="133.878" transform="rotate(90 277.859 447.023)" fill="white"/>
<rect x="199.301" y="430.611" width="1.57074" height="120.389" fill="white"/>
<rect x="277.859" y="481.872" width="1.33264" height="133.878" transform="rotate(90 277.859 481.872)" fill="white"/>
<rect x="240.375" y="430.611" width="1.57074" height="120.389" fill="white"/>
<rect x="277.859" y="516.72" width="1.33264" height="133.878" transform="rotate(90 277.859 516.72)" fill="white"/>
<rect x="178.763" y="430.611" width="1.57074" height="120.389" fill="white"/>
<rect x="277.859" y="464.448" width="1.33264" height="133.878" transform="rotate(90 277.859 464.448)" fill="white"/>
<rect x="219.838" y="430.611" width="1.57074" height="120.389" fill="white"/>
<rect x="277.859" y="499.296" width="1.33264" height="133.878" transform="rotate(90 277.859 499.296)" fill="white"/>
<rect x="260.913" y="430.611" width="1.57074" height="120.389" fill="white"/>
<rect x="277.859" y="534.145" width="1.33264" height="133.878" transform="rotate(90 277.859 534.145)" fill="white"/>
<rect x="410.238" y="153.16" width="1.57074" height="141.899" fill="white"/>
<rect x="529.871" y="172.505" width="1.57074" height="133.878" transform="rotate(90 529.871 172.505)" fill="white"/>
<rect x="451.313" y="153.16" width="1.57074" height="141.899" fill="white"/>
<rect x="529.871" y="213.58" width="1.57074" height="133.878" transform="rotate(90 529.871 213.58)" fill="white"/>
<rect x="492.387" y="153.16" width="1.57074" height="141.899" fill="white"/>
<rect x="529.871" y="254.655" width="1.57074" height="133.878" transform="rotate(90 529.871 254.655)" fill="white"/>
<rect x="430.775" y="153.16" width="1.57074" height="141.899" fill="white"/>
<rect x="529.871" y="193.042" width="1.57074" height="133.878" transform="rotate(90 529.871 193.042)" fill="white"/>
<rect x="471.85" y="153.16" width="1.57074" height="141.899" fill="white"/>
<rect x="529.871" y="234.117" width="1.57074" height="133.878" transform="rotate(90 529.871 234.117)" fill="white"/>
<rect x="512.925" y="153.16" width="1.57074" height="141.899" fill="white"/>
<rect x="529.871" y="275.192" width="1.57074" height="133.878" transform="rotate(90 529.871 275.192)" fill="white"/>
</svg>
