<svg width="26" height="26" viewBox="0 0 26 26" fill="none" xmlns="http://www.w3.org/2000/svg">
<rect x="25.1691" y="1.24634" width="24" height="24" rx="4" transform="rotate(90.8881 25.1691 1.24634)" fill="#23D34C" fill-opacity="0.2"/>
<path d="M14.4405 5.92388C14.4507 5.98582 14.4549 6.04842 14.453 6.11095L14.2879 16.7616L14.412 16.5312C14.5353 16.306 14.7016 16.102 14.9034 15.9283L18.281 12.9933C18.7059 12.6064 19.3807 12.5508 19.8798 12.8614C20.4112 13.2222 20.5173 13.8999 20.1167 14.3751C20.0843 14.4135 20.0491 14.45 20.0113 14.4841L13.9035 19.7916C13.4267 20.2064 12.6639 20.195 12.1996 19.7661L12.1987 19.7652L6.25834 14.2709C5.79505 13.8412 5.8067 13.1573 6.28439 12.7433C6.32199 12.7108 6.36193 12.6804 6.40394 12.6525C6.91243 12.3575 7.58516 12.434 7.99789 12.8339L11.289 15.8669C11.4635 16.0281 11.6091 16.2127 11.7204 16.4138L11.878 16.7404L12.0425 6.13304C12.0282 5.58088 12.4656 5.10343 13.0722 5.00914C13.7305 4.92383 14.343 5.33336 14.4405 5.92388Z" fill="#23D34C"/>
</svg>
