<svg width="24" height="16" viewBox="0 0 24 16" fill="none" xmlns="http://www.w3.org/2000/svg">
<path d="M1.63637 15.0039H5.45455V7.27664L0 3.86755V13.6403C0 14.3949 0.733639 15.0039 1.63637 15.0039Z" fill="#4285F4"/>
<path d="M18.5454 15.0039H22.3636C23.2692 15.0039 24 14.3926 24 13.6403V3.86755L18.5454 7.27664" fill="#34A853"/>
<path d="M18.5454 1.36751V7.27661L24 3.86752V2.04933C24 0.36296 21.6901 -0.598406 20.0728 0.41296" fill="#FBBC04"/>
<path d="M5.45455 7.27665V1.36755L12 5.45847L18.5454 1.36755V7.27665L12 11.3676" fill="#EA4335"/>
<path d="M0 2.04933V3.86752L5.45455 7.27661V1.36751L3.92729 0.41296C2.30728 -0.598406 0 0.36296 0 2.04933Z" fill="#C5221F"/>
</svg>
