<svg width="148" height="150" viewBox="0 0 148 150" fill="none" xmlns="http://www.w3.org/2000/svg">
<g filter="url(#filter0_d_212_171)">
<circle cx="72" cy="65" r="51" stroke="#E8E8E8" stroke-width="28"/>
<path d="M21.8858 55.5359C24.0911 43.8583 30.3053 33.3174 39.4552 25.7338C48.605 18.1502 60.116 14 72 14" stroke="#1F86FF" stroke-width="28"/>
<path d="M32.9558 97.8109C28.0243 91.9424 24.479 85.0378 22.5836 77.6104C20.6882 70.1829 20.4915 62.4238 22.0081 54.9099" stroke="#C141CC" stroke-width="28"/>
<path d="M114.803 92.7297C110.402 99.5227 104.447 105.171 97.4314 109.207C90.4155 113.243 82.5397 115.551 74.4551 115.941C66.3705 116.331 58.3093 114.79 50.9377 111.448C43.5662 108.105 37.0962 103.056 32.0624 96.7174" stroke="#9CC741" stroke-width="28"/>
<path d="M121.445 77.4961C119.994 83.2402 117.552 88.6873 114.231 93.5932" stroke="#3C009E" stroke-width="28"/>
<path d="M72 14C116.891 14 127 58 121.5 78" stroke="#21C0E3" stroke-width="28"/>
</g>
<defs>
<filter id="filter0_d_212_171" x="0" y="0" width="148" height="150" filterUnits="userSpaceOnUse" color-interpolation-filters="sRGB">
<feFlood flood-opacity="0" result="BackgroundImageFix"/>
<feColorMatrix in="SourceAlpha" type="matrix" values="0 0 0 0 0 0 0 0 0 0 0 0 0 0 0 0 0 0 127 0" result="hardAlpha"/>
<feOffset dx="2" dy="11"/>
<feGaussianBlur stdDeviation="4.5"/>
<feColorMatrix type="matrix" values="0 0 0 0 0 0 0 0 0 0 0 0 0 0 0 0 0 0 0.1 0"/>
<feBlend mode="normal" in2="BackgroundImageFix" result="effect1_dropShadow_212_171"/>
<feBlend mode="normal" in="SourceGraphic" in2="effect1_dropShadow_212_171" result="shape"/>
</filter>
</defs>
</svg>
