<svg width="24" height="24" viewBox="0 0 24 24" fill="none" xmlns="http://www.w3.org/2000/svg">
<path d="M7.92397 14.5976C6.75731 13.742 5.89122 12.5393 5.44966 11.1616C5.00811 9.78389 5.01372 8.3018 5.46571 6.92748C5.91769 5.55315 6.79288 4.35705 7.96599 3.51036C9.1391 2.66368 10.55 2.20983 11.9967 2.21377C13.4435 2.21771 14.8519 2.67924 16.0204 3.5323C17.1888 4.38536 18.0575 5.58621 18.502 6.96298C18.9465 8.33975 18.944 9.82184 18.495 11.1971C18.0459 12.5724 17.1733 13.7704 16.002 14.6196" stroke="#FFFF00" stroke-linecap="round" stroke-linejoin="round"/>
<path d="M16.0019 14.62V17.931L7.90843 17.922L7.92843 14.5915M9.86193 13.6085C8.87427 13.1251 8.07934 12.3216 7.60655 11.3287C7.13377 10.3359 7.01097 9.21232 7.25816 8.14083C7.50535 7.06934 8.10796 6.11307 8.96789 5.42771C9.82782 4.74235 10.8944 4.36826 11.9941 4.36634C13.0937 4.36442 14.1616 4.73479 15.0239 5.41714C15.8862 6.09949 16.4922 7.05365 16.7431 8.12427C16.994 9.19489 16.8751 10.3189 16.4058 11.3134C15.9365 12.3078 15.1444 13.1141 14.1584 13.601" stroke="#FFFF00" stroke-linecap="round" stroke-linejoin="round"/>
<path d="M14.158 13.601L14.1585 16.081H9.89697L9.90197 13.639" stroke="#FFFF00" stroke-linecap="round" stroke-linejoin="round"/>
<path d="M14.8601 20.0341H9.14061C9.07185 20.0341 9.01611 20.0898 9.01611 20.1586V21.6256C9.01611 21.6943 9.07185 21.7501 9.14061 21.7501H14.8601C14.9289 21.7501 14.9846 21.6943 14.9846 21.6256V20.1586C14.9846 20.0898 14.9289 20.0341 14.8601 20.0341Z" stroke="#FFFF00" stroke-linecap="round" stroke-linejoin="round"/>
</svg>
