<svg width="25" height="25" viewBox="0 0 25 25" fill="none" xmlns="http://www.w3.org/2000/svg">
<rect y="23.9999" width="24" height="24" rx="4" transform="rotate(-89.8565 0 23.9999)" fill="#D32323" fill-opacity="0.2"/>
<path d="M10.6669 19.1834C10.6559 19.1216 10.6509 19.059 10.6519 18.9965L10.6786 8.34464L10.5575 8.5766C10.4371 8.80334 10.2735 9.00947 10.074 9.18577L6.73484 12.1645C6.31498 12.5568 5.64098 12.6212 5.13788 12.3171C4.60184 11.9633 4.48696 11.287 4.88132 10.8066C4.9132 10.7678 4.94793 10.7309 4.9853 10.6963L11.0236 5.30983C11.495 4.88888 12.2579 4.89042 12.7277 5.31325L12.7286 5.3141L18.7399 10.7307C19.2087 11.1544 19.2059 11.8384 18.7337 12.2585C18.6965 12.2916 18.657 12.3224 18.6153 12.3509C18.1107 12.6525 17.437 12.5847 17.0191 12.1902L13.6889 9.20023C13.5123 9.04128 13.3644 8.85868 13.2504 8.65897L13.0886 8.33447L13.062 18.9431C13.0835 19.495 12.6523 19.9781 12.047 20.0803C11.3898 20.1741 10.772 19.7726 10.6669 19.1834Z" fill="#D32323"/>
</svg>
