<svg width="25" height="20" viewBox="0 0 25 20" fill="none" xmlns="http://www.w3.org/2000/svg">
<path d="M8.03429 13.5079C8.74507 13.5079 9.32127 13.0469 9.32127 12.4783C9.32127 11.9097 8.74507 11.4487 8.03429 11.4487C7.32351 11.4487 6.74731 11.9097 6.74731 12.4783C6.74731 13.0469 7.32351 13.5079 8.03429 13.5079Z" stroke="#22A447" stroke-linecap="round" stroke-linejoin="round"/>
<path d="M16.9657 13.5079C17.6765 13.5079 18.2527 13.0469 18.2527 12.4783C18.2527 11.9097 17.6765 11.4487 16.9657 11.4487C16.2549 11.4487 15.6787 11.9097 15.6787 12.4783C15.6787 13.0469 16.2549 13.5079 16.9657 13.5079Z" stroke="#22A447" stroke-linecap="round" stroke-linejoin="round"/>
<path d="M4.60571 4.11542V13.5396C4.60723 14.1333 4.90269 14.7024 5.42745 15.1223C5.95221 15.5422 6.66352 15.7787 7.40571 15.78H17.5943C18.3364 15.7787 19.0478 15.5422 19.5725 15.1223C20.0973 14.7024 20.3927 14.1333 20.3943 13.5396V4.11542C20.3927 3.52167 20.0973 2.95257 19.5725 2.53269C19.0478 2.1128 18.3364 1.87632 17.5943 1.875H7.40571C6.66352 1.87632 5.95221 2.1128 5.42745 2.53269C4.90269 2.95257 4.60723 3.52167 4.60571 4.11542V4.11542Z" stroke="#22A447" stroke-width="2" stroke-linecap="round" stroke-linejoin="round"/>
<path d="M11.1187 3.97119H7.17025C6.9128 3.97119 6.7041 4.13815 6.7041 4.34411V8.47911C6.7041 8.68506 6.9128 8.85203 7.17025 8.85203H11.1187C11.3761 8.85203 11.5848 8.68506 11.5848 8.47911V4.34411C11.5848 4.13815 11.3761 3.97119 11.1187 3.97119Z" stroke="#22A447" stroke-linecap="round" stroke-linejoin="round"/>
<path d="M7.40571 15.8016L3.51978 18.125M17.5943 15.8016L21.4802 18.125" stroke="#22A447" stroke-width="2" stroke-linecap="round" stroke-linejoin="round"/>
<path d="M17.8296 3.97119H13.8812C13.6237 3.97119 13.415 4.13815 13.415 4.34411V8.47911C13.415 8.68506 13.6237 8.85203 13.8812 8.85203H17.8296C18.0871 8.85203 18.2958 8.68506 18.2958 8.47911V4.34411C18.2958 4.13815 18.0871 3.97119 17.8296 3.97119Z" stroke="#22A447" stroke-linecap="round" stroke-linejoin="round"/>
</svg>
